<svg width="6" height="14" viewBox="0 0 6 14" fill="none" xmlns="http://www.w3.org/2000/svg">
<path d="M2.75195 12.8057L4.79541 7.89844C4.8833 7.68359 4.96143 7.48096 5.02979 7.29053C5.09814 7.09521 5.13232 6.89746 5.13232 6.69727C5.13232 6.49707 5.09814 6.29932 5.02979 6.104C4.96143 5.90869 4.8833 5.70605 4.79541 5.49609L2.75195 0.596191C2.67383 0.42041 2.55908 0.278809 2.40771 0.171387C2.26123 0.059082 2.09521 0.00292969 1.90967 0.00292969C1.60205 0.00292969 1.35059 0.100586 1.15527 0.295898C0.964844 0.486328 0.869629 0.720703 0.869629 0.999023C0.869629 1.14551 0.903809 1.30908 0.972168 1.48975C1.04053 1.66553 1.10645 1.82666 1.16992 1.97314L3.30127 7.12939V6.27246L1.16992 11.4287C1.10645 11.5801 1.04053 11.7437 0.972168 11.9194C0.903809 12.0903 0.869629 12.2515 0.869629 12.4028C0.869629 12.6763 0.964844 12.9106 1.15527 13.106C1.35059 13.3013 1.60205 13.3989 1.90967 13.3989C2.09521 13.3989 2.26123 13.3428 2.40771 13.2305C2.55908 13.123 2.67383 12.9814 2.75195 12.8057Z" fill="white"/>
</svg>
