<svg width="19" height="14" viewBox="0 0 19 14" fill="none" xmlns="http://www.w3.org/2000/svg">
<rect width="19" height="14" fill="#A499C0"/>
<g id="Assets" filter="url(#filter0_dd_2_4)">
<rect x="-1153" y="-183" width="2112" height="1492" rx="20" fill="#525569" shape-rendering="crispEdges"/>
<g id="Icons" filter="url(#filter1_d_2_4)">
<rect width="640" height="1492" transform="translate(-545 -183)" fill="url(#paint0_linear_2_4)"/>
<g id="Frame 3719">
<g id="Icon">
<g id="Frame 1400">
<path id="Union" fill-rule="evenodd" clip-rule="evenodd" d="M0 1C0 0.447715 0.447715 0 1 0H18C18.5523 0 19 0.447715 19 1C19 1.55228 18.5523 2 18 2H1C0.447715 2 0 1.55228 0 1ZM0 7C0 6.44772 0.447715 6 1 6H18C18.5523 6 19 6.44772 19 7C19 7.55228 18.5523 8 18 8H1C0.447715 8 0 7.55228 0 7ZM1 12C0.447715 12 0 12.4477 0 13C0 13.5523 0.447715 14 1 14H18C18.5523 14 19 13.5523 19 13C19 12.4477 18.5523 12 18 12H1Z" fill="white" fill-opacity="0.6"/>
</g>
</g>
</g>
</g>
<g id="Buttons" filter="url(#filter2_d_2_4)">
<rect width="388" height="1492" transform="translate(95 -183)" fill="url(#paint1_linear_2_4)" fill-opacity="0.6"/>
<rect width="388" height="1492" transform="translate(95 -183)" fill="url(#paint2_radial_2_4)"/>
</g>
</g>
<defs>
<filter id="filter0_dd_2_4" x="-1157" y="-183" width="2120" height="1500" filterUnits="userSpaceOnUse" color-interpolation-filters="sRGB">
<feFlood flood-opacity="0" result="BackgroundImageFix"/>
<feColorMatrix in="SourceAlpha" type="matrix" values="0 0 0 0 0 0 0 0 0 0 0 0 0 0 0 0 0 0 127 0" result="hardAlpha"/>
<feOffset dy="4"/>
<feGaussianBlur stdDeviation="2"/>
<feComposite in2="hardAlpha" operator="out"/>
<feColorMatrix type="matrix" values="0 0 0 0 0 0 0 0 0 0 0 0 0 0 0 0 0 0 0.25 0"/>
<feBlend mode="normal" in2="BackgroundImageFix" result="effect1_dropShadow_2_4"/>
<feColorMatrix in="SourceAlpha" type="matrix" values="0 0 0 0 0 0 0 0 0 0 0 0 0 0 0 0 0 0 127 0" result="hardAlpha"/>
<feOffset dy="4"/>
<feGaussianBlur stdDeviation="2"/>
<feComposite in2="hardAlpha" operator="out"/>
<feColorMatrix type="matrix" values="0 0 0 0 0 0 0 0 0 0 0 0 0 0 0 0 0 0 0.25 0"/>
<feBlend mode="normal" in2="effect1_dropShadow_2_4" result="effect2_dropShadow_2_4"/>
<feBlend mode="normal" in="SourceGraphic" in2="effect2_dropShadow_2_4" result="shape"/>
</filter>
<filter id="filter1_d_2_4" x="-645" y="-243" width="820" height="1672" filterUnits="userSpaceOnUse" color-interpolation-filters="sRGB">
<feFlood flood-opacity="0" result="BackgroundImageFix"/>
<feColorMatrix in="SourceAlpha" type="matrix" values="0 0 0 0 0 0 0 0 0 0 0 0 0 0 0 0 0 0 127 0" result="hardAlpha"/>
<feOffset dx="-10" dy="30"/>
<feGaussianBlur stdDeviation="45"/>
<feComposite in2="hardAlpha" operator="out"/>
<feColorMatrix type="matrix" values="0 0 0 0 0.0588235 0 0 0 0 0.0117647 0 0 0 0 0.247059 0 0 0 0.3 0"/>
<feBlend mode="normal" in2="BackgroundImageFix" result="effect1_dropShadow_2_4"/>
<feBlend mode="normal" in="SourceGraphic" in2="effect1_dropShadow_2_4" result="shape"/>
</filter>
<filter id="filter2_d_2_4" x="-5" y="-243" width="568" height="1672" filterUnits="userSpaceOnUse" color-interpolation-filters="sRGB">
<feFlood flood-opacity="0" result="BackgroundImageFix"/>
<feColorMatrix in="SourceAlpha" type="matrix" values="0 0 0 0 0 0 0 0 0 0 0 0 0 0 0 0 0 0 127 0" result="hardAlpha"/>
<feOffset dx="-10" dy="30"/>
<feGaussianBlur stdDeviation="45"/>
<feComposite in2="hardAlpha" operator="out"/>
<feColorMatrix type="matrix" values="0 0 0 0 0.0588235 0 0 0 0 0.0117647 0 0 0 0 0.247059 0 0 0 0.3 0"/>
<feBlend mode="normal" in2="BackgroundImageFix" result="effect1_dropShadow_2_4"/>
<feBlend mode="normal" in="SourceGraphic" in2="effect1_dropShadow_2_4" result="shape"/>
</filter>
<linearGradient id="paint0_linear_2_4" x1="19.8205" y1="746" x2="688.896" y2="860.798" gradientUnits="userSpaceOnUse">
<stop stop-color="#2B2F53"/>
<stop offset="0.788274" stop-color="#1D1C34"/>
</linearGradient>
<linearGradient id="paint1_linear_2_4" x1="30.0443" y1="-65.1845" x2="616.507" y2="1363.64" gradientUnits="userSpaceOnUse">
<stop stop-color="#362A84"/>
<stop offset="0.513655" stop-color="#010109"/>
<stop offset="0.930113" stop-color="#010109"/>
</linearGradient>
<radialGradient id="paint2_radial_2_4" cx="0" cy="0" r="1" gradientUnits="userSpaceOnUse" gradientTransform="translate(194.344 496.011) rotate(90) scale(1324.35 317.314)">
<stop stop-color="#362A84"/>
<stop offset="0.992509" stop-color="#262149" stop-opacity="0"/>
</radialGradient>
</defs>
</svg>
